<svg width="54" height="26" viewBox="0 0 54 26" fill="none" xmlns="http://www.w3.org/2000/svg">
<path d="M6.5 0.499971C13.9999 -2 42.5001 7.49994 49.5 1.99997C56.4999 -3.5 53.9999 20.5 49.5 22.5C45.0001 24.4999 14 27 6.5 22.5C-0.999996 18 -0.999915 2.99994 6.5 0.499971Z" fill="#3577EF"/>
<path d="M19.6602 15.7344L19.4375 17H15.2656L15.4883 15.7344H19.6602ZM17.2344 8.46875L15.752 17H14.1758L15.6523 8.46875H17.2344ZM20.6387 13.9297L20.6562 13.8066C20.7031 13.3613 20.8105 12.9414 20.9785 12.5469C21.1504 12.1484 21.375 11.7969 21.6523 11.4922C21.9336 11.1875 22.2656 10.9512 22.6484 10.7832C23.0352 10.6113 23.4648 10.5312 23.9375 10.543C24.3906 10.5508 24.7812 10.6445 25.1094 10.8242C25.4414 11 25.7109 11.2383 25.918 11.5391C26.1289 11.8359 26.2754 12.1758 26.3574 12.5586C26.4434 12.9375 26.4668 13.3379 26.4277 13.7598L26.416 13.8887C26.3652 14.3301 26.2539 14.748 26.082 15.1426C25.9102 15.5332 25.6836 15.8789 25.4023 16.1797C25.1211 16.4805 24.7891 16.7148 24.4062 16.8828C24.0234 17.0508 23.5977 17.1289 23.1289 17.1172C22.6797 17.1094 22.2891 17.0176 21.957 16.8418C21.6289 16.666 21.3594 16.4316 21.1484 16.1387C20.9414 15.8418 20.7949 15.5039 20.709 15.125C20.627 14.7461 20.6035 14.3477 20.6387 13.9297ZM22.1621 13.8066L22.1504 13.9355C22.1348 14.1348 22.1309 14.3477 22.1387 14.5742C22.1504 14.8008 22.1914 15.0137 22.2617 15.2129C22.332 15.4121 22.4434 15.5762 22.5957 15.7051C22.748 15.8301 22.9531 15.8965 23.2109 15.9043C23.4883 15.9121 23.7266 15.8574 23.9258 15.7402C24.1289 15.6191 24.2969 15.459 24.4297 15.2598C24.5625 15.0566 24.668 14.834 24.7461 14.5918C24.8242 14.3496 24.877 14.1133 24.9043 13.8828L24.916 13.7598C24.9355 13.5605 24.9395 13.3457 24.9277 13.1152C24.916 12.8848 24.875 12.6699 24.8047 12.4707C24.7344 12.2676 24.623 12.1016 24.4707 11.9727C24.3184 11.8398 24.1113 11.7695 23.8496 11.7617C23.5723 11.75 23.332 11.8066 23.1289 11.9316C22.9297 12.0566 22.7637 12.2207 22.6309 12.4238C22.498 12.627 22.3926 12.8516 22.3145 13.0977C22.2402 13.3398 22.1895 13.5762 22.1621 13.8066ZM31.9414 10.6602H33.3301L32.2812 16.8008C32.2031 17.3711 32.0137 17.8594 31.7129 18.2656C31.416 18.6758 31.0352 18.9863 30.5703 19.1973C30.1094 19.4121 29.5938 19.5137 29.0234 19.502C28.7422 19.4941 28.4648 19.4492 28.1914 19.3672C27.918 19.2891 27.6621 19.1719 27.4238 19.0156C27.1895 18.8633 26.9863 18.6758 26.8145 18.4531L27.582 17.5566C27.7578 17.791 27.9648 17.9746 28.2031 18.1074C28.4414 18.2402 28.707 18.3105 29 18.3184C29.3164 18.3262 29.5957 18.2695 29.8379 18.1484C30.084 18.0273 30.2852 17.8535 30.4414 17.627C30.5977 17.4004 30.7031 17.1328 30.7578 16.8242L31.5723 12.0312L31.9414 10.6602ZM27.2363 13.9473L27.2539 13.8242C27.3008 13.4258 27.3945 13.0312 27.5352 12.6406C27.6758 12.2461 27.8633 11.8887 28.0977 11.5684C28.3359 11.248 28.627 10.9941 28.9707 10.8066C29.3145 10.6191 29.7148 10.5312 30.1719 10.543C30.5898 10.5547 30.9297 10.6582 31.1914 10.8535C31.457 11.0449 31.6602 11.2969 31.8008 11.6094C31.9453 11.918 32.041 12.2539 32.0879 12.6172C32.1387 12.9766 32.1543 13.332 32.1348 13.6836L32.0996 14.0176C32.0332 14.377 31.9258 14.7422 31.7773 15.1133C31.6328 15.4805 31.4434 15.8184 31.209 16.127C30.9785 16.4355 30.7012 16.6816 30.377 16.8652C30.0527 17.0488 29.6836 17.1348 29.2695 17.123C28.8477 17.1113 28.4961 17.0078 28.2148 16.8125C27.9375 16.6172 27.7207 16.3633 27.5645 16.0508C27.4082 15.7383 27.3047 15.3984 27.2539 15.0312C27.207 14.6641 27.2012 14.3027 27.2363 13.9473ZM28.7715 13.8184L28.7539 13.9473C28.7344 14.1387 28.7266 14.3438 28.7305 14.5625C28.7383 14.7812 28.7734 14.9902 28.8359 15.1895C28.8984 15.3887 29 15.5527 29.1406 15.6816C29.2852 15.8105 29.4824 15.8789 29.7324 15.8867C30.041 15.9023 30.3105 15.8379 30.541 15.6934C30.7754 15.5449 30.9668 15.3496 31.1152 15.1074C31.2637 14.8652 31.3672 14.6035 31.4258 14.3223L31.5605 13.3965C31.5762 13.2051 31.5703 13.0137 31.543 12.8223C31.5156 12.6309 31.459 12.457 31.373 12.3008C31.2871 12.1445 31.1699 12.0195 31.0215 11.9258C30.877 11.8281 30.6914 11.7773 30.4648 11.7734C30.1914 11.7617 29.9531 11.8184 29.75 11.9434C29.5508 12.0684 29.3828 12.2344 29.2461 12.4414C29.1133 12.6445 29.0078 12.8691 28.9297 13.1152C28.8516 13.3574 28.7988 13.5918 28.7715 13.8184ZM33.8574 13.9297L33.875 13.8066C33.9219 13.3613 34.0293 12.9414 34.1973 12.5469C34.3691 12.1484 34.5938 11.7969 34.8711 11.4922C35.1523 11.1875 35.4844 10.9512 35.8672 10.7832C36.2539 10.6113 36.6836 10.5312 37.1562 10.543C37.6094 10.5508 38 10.6445 38.3281 10.8242C38.6602 11 38.9297 11.2383 39.1367 11.5391C39.3477 11.8359 39.4941 12.1758 39.5762 12.5586C39.6621 12.9375 39.6855 13.3379 39.6465 13.7598L39.6348 13.8887C39.584 14.3301 39.4727 14.748 39.3008 15.1426C39.1289 15.5332 38.9023 15.8789 38.6211 16.1797C38.3398 16.4805 38.0078 16.7148 37.625 16.8828C37.2422 17.0508 36.8164 17.1289 36.3477 17.1172C35.8984 17.1094 35.5078 17.0176 35.1758 16.8418C34.8477 16.666 34.5781 16.4316 34.3672 16.1387C34.1602 15.8418 34.0137 15.5039 33.9277 15.125C33.8457 14.7461 33.8223 14.3477 33.8574 13.9297ZM35.3809 13.8066L35.3691 13.9355C35.3535 14.1348 35.3496 14.3477 35.3574 14.5742C35.3691 14.8008 35.4102 15.0137 35.4805 15.2129C35.5508 15.4121 35.6621 15.5762 35.8145 15.7051C35.9668 15.8301 36.1719 15.8965 36.4297 15.9043C36.707 15.9121 36.9453 15.8574 37.1445 15.7402C37.3477 15.6191 37.5156 15.459 37.6484 15.2598C37.7812 15.0566 37.8867 14.834 37.9648 14.5918C38.043 14.3496 38.0957 14.1133 38.123 13.8828L38.1348 13.7598C38.1543 13.5605 38.1582 13.3457 38.1465 13.1152C38.1348 12.8848 38.0938 12.6699 38.0234 12.4707C37.9531 12.2676 37.8418 12.1016 37.6895 11.9727C37.5371 11.8398 37.3301 11.7695 37.0684 11.7617C36.791 11.75 36.5508 11.8066 36.3477 11.9316C36.1484 12.0566 35.9824 12.2207 35.8496 12.4238C35.7168 12.627 35.6113 12.8516 35.5332 13.0977C35.459 13.3398 35.4082 13.5762 35.3809 13.8066Z" fill="white"/>
</svg>
